<svg id="Layer_1" data-name="Layer 1" xmlns="http://www.w3.org/2000/svg" viewBox="0 0 555.78 100.96"><defs><style>.cls-1{fill:#fff;}</style></defs><path class="cls-1" d="M39.3,67.45l-1.9,2.7H30.8V30.8h9.85V42.5c1.55-1.4,4.5-2.2,8.6-2.2,10,0,12.35,7.05,12.35,14.9s-2.6,14.85-13,14.85C43.6,70.05,40.7,68.85,39.3,67.45ZM51.55,55.6c0-3.35-.6-6.3-4.9-6.3-4.6,0-5.95,2.35-5.95,6.3s1,6.1,5.95,6.1C50.85,61.7,51.55,59,51.55,55.6Z"/><path class="cls-1" d="M64.4,55.2c0-9.5,4.35-14.9,15.55-14.9s15.5,5.4,15.5,14.9-4.3,15-15.5,15S64.4,64.7,64.4,55.2Zm21.1.3c0-3.6-.9-6.2-5.55-6.2s-5.55,2.6-5.55,6.2.9,6.2,5.55,6.2S85.5,59.05,85.5,55.5Z"/><path class="cls-1" d="M98.45,55.4V41h9.9V55.6c0,3.6.2,5.85,4.55,5.85s4.5-2.3,4.5-5.85V41h9.75V55.4c0,10.9-3.45,14.75-14.35,14.75S98.45,66.35,98.45,55.4Z"/><path class="cls-1" d="M130.63,60.5V31.25h9.91v28c0,2,.45,2.55,2.55,2.55h.85V70a44.07,44.07,0,0,1-4.51.2C134,70.15,130.63,68.25,130.63,60.5Z"/><path class="cls-1" d="M146.2,55.2c0-7.85,2.7-14.9,15.5-14.9S175.3,48.5,175,58.65H155.8c.5,2.35,2,3.55,5.9,3.55,4.25,0,6.85-1,8.85-2.5l4.95,6.35c-4.05,3.1-7.95,4.1-13.8,4.1C148.9,70.15,146.2,63.25,146.2,55.2Zm9.5-2.4H166c-.15-2.35-.45-4.3-4.55-4.3S156.1,50.05,155.7,52.8Z"/><path class="cls-1" d="M174.55,41.2h10.7l6.15,17.1,6.2-17.1h10.05l-11.4,29H185.9Z"/><path class="cls-1" d="M206.8,61.1c0-8.1,5.85-9.65,18-9.65h.9c-.05-1.5-.4-2.4-4.65-2.4a16,16,0,0,0-8.15,2.3L208,44.1a27.78,27.78,0,0,1,14.2-3.7c10.7,0,13.05,3.25,13.05,11.3v7.65c0,1.85.15,2.2,2.25,2.2v8a22.62,22.62,0,0,1-4.2.25c-3,0-4.6-.45-5.85-2.6-1.4,1.75-4.6,2.9-9.5,2.9C208.7,70.15,206.8,66.15,206.8,61.1Zm18.95-2.75v-1h-.25c-8.95,0-9.3.9-9.3,2.85,0,1.45,1,2,3.8,2C224,62.2,225.75,61.1,225.75,58.35Z"/><path class="cls-1" d="M240.7,42l7.7-.6,1,3c1.25-1.7,4.7-3.15,8.8-3.3V50.6c-6.6,0-7.6,2-7.6,5.9V70.05h-9.9Z"/><path class="cls-1" d="M260.2,55.1c0-7.85,2.65-14.8,12.85-14.8,4.7,0,6.9,1.2,8,2.2V30.8H291V70.15h-7.6l-1-2.81c-1.65,1.6-4.6,2.8-9.7,2.8C262.7,70.15,260.2,63,260.2,55.1Zm20.85,0c0-3.9-.9-5.9-5.9-5.9-4.25,0-4.9,2.6-4.9,5.9s.6,6.55,4.9,6.55C279.75,61.65,281.05,59.1,281.05,55.1Z"/><path class="cls-1" d="M297.17,55.75c0-8.75,2.9-14.4,13.3-14.4,4.95,0,7.95,1.8,9.95,3.95l-2.75,2.6a9.6,9.6,0,0,0-7.2-2.9c-7.25,0-9.5,4-9.5,10.85s2.15,10.85,9.5,10.85a10.18,10.18,0,0,0,7.4-2.9l2.55,2.4a13.44,13.44,0,0,1-10.05,3.9C300.07,70.1,297.17,64.5,297.17,55.75Z"/><path class="cls-1" d="M323.19,55.75c0-9.5,3.75-14.4,13.31-14.4s13.35,4.9,13.35,14.4-3.8,14.4-13.35,14.4S323.19,65.25,323.19,55.75Zm22.81.1c0-7.1-2.55-10.9-9.5-10.9S327,48.75,327,55.85s2.55,10.85,9.51,10.85S346,62.9,346,55.85Z"/><path class="cls-1" d="M353.84,42.2l3-.2.35,2.9c1.2-1.9,3.85-3.55,10.25-3.55,8.91,0,10,4.6,10,11.4V69.6h-3.8V53.4c0-4.9-.45-8.3-7.26-8.3-7.35,0-8.7,3.8-8.7,9V69.6h-3.8Z"/><path class="cls-1" d="M380.92,67l2-3a17.89,17.89,0,0,0,9.7,2.75c5,0,7.3-1,7.3-4.85,0-3.1-2-3.7-7.3-4.75-6.4-1.25-10.4-2.35-10.4-8.3,0-4.75,2.8-7.55,10.4-7.55a19.84,19.84,0,0,1,10.1,2.4l-1.8,3.1a17.16,17.16,0,0,0-8.25-2c-5.2,0-6.7,1.55-6.7,4,0,3.05,2,3.8,6.85,4.75,6.7,1.35,10.75,2.25,10.75,8.15,0,6.3-3.5,8.3-11.15,8.3A20.61,20.61,0,0,1,380.92,67Z"/><path class="cls-1" d="M406.92,58.25V42h3.75V58.35c0,4.55,0,8.3,8.05,8.3s7.9-3.75,7.9-8.5V42h3.7V58.1c0,7.5-.95,12-11.6,12S406.92,65.6,406.92,58.25Z"/><path class="cls-1" d="M434.27,63V30.8H438V62.6c0,2.7.35,3.65,3.2,3.65h1.2v3.3a24,24,0,0,1-2.4.1C435.52,69.65,434.27,67.7,434.27,63Z"/><path class="cls-1" d="M441.52,42h5.05l.65-8.3,3-.55V42h7.6v3.45h-7.6v16.6c0,2.55.35,4.2,4.2,4.2h3.4V69.6c-.4.05-3.45.05-4,.05-6.2,0-7.35-2.5-7.35-7.15v-17h-5Z"/><path class="cls-1" d="M462.07,33h3.8v5.4h-3.8Zm0,9h3.75V69.6h-3.75Z"/><path class="cls-1" d="M470.93,42.2l3-.2.35,2.9c1.2-1.9,3.85-3.55,10.25-3.55,8.9,0,9.07,4.6,9.07,11.4V69.6h-2.92V53.4c0-4.9-.45-8.3-7.25-8.3-7.35,0-8.7,3.8-8.7,9V69.6h-3.8Z"/><path class="cls-1" d="M511.08,41.35c-9.55,0-13.3,4.9-13.3,14.4s3.75,14.4,13.3,14.4c4.37,0,7.53-1,9.68-3.06l0,10v2.74c.07,2.27-.6,3.29-3,4.21l-2,.78,1.12,2.89c.49-.14,1.89-.68,2.26-.82,4-1.56,4.93-3.8,4.9-8l.14-19.12C524.15,54,525.76,41.35,511.08,41.35Zm0,25.35c-6.95,0-9.5-3.8-9.5-10.85s2.55-10.9,9.5-10.9,9.51,3.8,9.51,10.9S518,66.7,511.08,66.7Z"/></svg>